<svg width="1440" height="1150" viewBox="0 0 1440 1150" fill="none" xmlns="http://www.w3.org/2000/svg">
<path d="M-1 465.5C71.6667 232.167 249.4 -171.2 379 82C541 398.5 70 307.5 224.5 430C379 552.5 399 528.5 482 465.5C565 402.5 699.5 165 838 236C976.5 307 828.528 430 988 430C1359.5 430 390.5 881.5 675.5 905C960.5 928.5 612.5 1082.5 782.5 1102.5C952.5 1122.5 1146 659 1249 782C1352 905 1296.5 367 1486.5 347C1638.5 331 1510.33 269.333 1486.5 276" stroke="#EF3B50" stroke-opacity="0.4"/>
<path d="M-1 511.11C71.6667 277.776 249.4 -125.59 379 127.61C541 444.11 70 353.11 224.5 475.61C379 598.11 399 574.11 482 511.11C565 448.11 699.5 210.61 838 281.61C976.5 352.61 828.528 475.61 988 475.61C1359.5 475.61 390.5 927.11 675.5 950.61C960.5 974.11 612.5 1128.11 782.5 1148.11C952.5 1168.11 1146 704.61 1249 827.61C1352 950.61 1296.5 412.61 1486.5 392.61C1638.5 376.61 1510.33 314.943 1486.5 321.61" stroke="#EF3B50"/>
</svg>
