<svg width="1279" height="2450" viewBox="0 0 1279 2450" fill="none" xmlns="http://www.w3.org/2000/svg">
<path d="M-6.00002 203C20.8333 88.8333 142.8 -109.1 316 112.5C532.5 389.5 592.39 293.019 664.5 256C758 208 980.5 127.5 940 283.5C899.5 439.5 497 586 718.5 701.5C940 817 1327.5 641 1201.5 882.5C1075.5 1124 955 1204.5 1141 1375.5C1433.87 1644.75 688 1416 557.5 1491.5C246.341 1671.52 -36.0001 1285 79.4999 1582C195 1879 145 2100 34 2175.5C-97.0365 2264.63 -7.66672 2346.67 -6.00005 2407" stroke="#EF3B50" stroke-opacity="0.4" stroke-width="2"/>
<path d="M-6.00002 203C20.8333 88.8333 142.8 -109.1 316 112.5C532.5 389.5 592.39 293.019 664.5 256C758 208 980.5 127.5 940 283.5C899.5 439.5 497 586 718.5 701.5C940 817 1327.5 641 1201.5 882.5C1075.5 1124 955 1204.5 1141 1375.5C1433.87 1644.75 688 1416 557.5 1491.5C246.341 1671.52 -36.0001 1285 79.4999 1582C195 1879 145 2100 34 2175.5C-97.0365 2264.63 -7.66672 2346.67 -6.00005 2407" stroke="#EF3B50" stroke-opacity="0.4" stroke-width="2"/>
<path d="M-9.49996 233.91C17.3334 119.744 194.095 -131.19 367.295 90.4102C583.795 367.41 643.685 270.929 715.795 233.91C809.295 185.91 1031.79 105.41 991.294 261.41C950.794 417.41 548.294 563.91 769.794 679.41C991.294 794.91 1378.79 618.91 1252.79 860.41C1126.79 1101.91 1006.29 1182.41 1192.29 1353.41C1485.16 1622.66 739.295 1393.91 608.795 1469.41C297.636 1649.43 15.2946 1262.91 130.795 1559.91C246.295 1856.91 196.295 2077.91 85.2947 2153.41C-45.7418 2242.54 -15.1665 2389.17 -13.4999 2449.5" stroke="#EF3B50" stroke-opacity="0.4" stroke-width="2"/>
<path d="M-9.49996 233.91C17.3334 119.744 194.095 -131.19 367.295 90.4102C583.795 367.41 643.685 270.929 715.795 233.91C809.295 185.91 1031.79 105.41 991.294 261.41C950.794 417.41 548.294 563.91 769.794 679.41C991.294 794.91 1378.79 618.91 1252.79 860.41C1126.79 1101.91 1006.29 1182.41 1192.29 1353.41C1485.16 1622.66 739.295 1393.91 608.795 1469.41C297.636 1649.43 15.2946 1262.91 130.795 1559.91C246.295 1856.91 196.295 2077.91 85.2947 2153.41C-45.7418 2242.54 -15.1665 2389.17 -13.4999 2449.5" stroke="#EF3B50" stroke-width="2"/>
</svg>
