<svg width="1440" height="601" viewBox="0 0 1440 601" fill="none" xmlns="http://www.w3.org/2000/svg">
<path d="M-9.5 21C67.5 32.6667 219.6 83.2 144 190C49.5 323.5 -45 632.5 193.5 555C432 477.5 596.5 257 779 383C961.5 509 1007 691 1203.5 519.5C1400 348 1211 -98 1393 21.5C1538.6 117.1 1603.33 258 1617.5 316.5" stroke="#EF3B50" stroke-opacity="0.4" stroke-width="2"/>
<path d="M-8 45C69 56.6667 263.1 92.7693 187.5 199.569C93 333.069 -1.5 642.069 237 564.569C475.5 487.069 640 266.569 822.5 392.569C1005 518.569 1050.5 700.569 1247 529.069C1443.5 357.569 1254.5 -88.4307 1436.5 31.0693C1582.1 126.669 1646.83 267.569 1661 326.069" stroke="#EF3B50" stroke-width="2"/>
</svg>
