<svg width="159" height="50" viewBox="0 0 159 30" fill="none" xmlns="http://www.w3.org/2000/svg">
<path d="M18.6694 1.7732C19.8401 1.74925 21.0087 1.88155 22.1448 2.16665C23.2309 2.38522 24.0997 2.75681 24.8382 3.25954C25.5768 3.76227 26.185 4.41801 26.576 5.29233C26.9669 6.16665 27.1624 7.25954 27.1624 8.39615C27.1624 9.75134 26.8801 10.9098 26.2067 11.7841C25.5333 12.6584 24.6862 13.4235 23.5132 14.0136C25.1423 14.4945 26.4022 15.3688 27.2059 16.5273C28.0359 17.7912 28.4744 19.2746 28.4657 20.7896C28.4657 22.1448 28.1833 23.3033 27.7055 24.2869C27.2276 25.2705 26.4456 26.1229 25.5768 26.6912C24.7079 27.2595 23.6219 27.7841 22.4923 28.0464C21.3578 28.3493 20.1906 28.5108 19.0169 28.5273H6.04932V1.7732H18.6694ZM17.9092 12.6584C18.9952 12.6584 19.8641 12.3743 20.5157 11.8934C21.1673 11.4125 21.4714 10.5382 21.4714 9.48905C21.4714 8.89888 21.3846 8.33058 21.1891 7.959C20.9936 7.58741 20.7112 7.30326 20.3202 6.99725C19.9292 6.69123 19.56 6.6038 19.0604 6.51637C18.5608 6.42894 18.1046 6.42894 17.5399 6.42894H11.9358V12.6584H17.9092ZM18.1915 24.0901C18.778 24.0901 19.3428 24.0027 19.8206 23.8716C20.2985 23.7404 20.7764 23.5874 21.1673 23.2814C21.5583 22.9754 21.819 22.6912 22.1231 22.1885C22.4272 21.6858 22.5141 21.0956 22.5141 20.4399C22.5141 19.0847 22.1231 18.1229 21.3628 17.4235C20.6026 16.724 19.5382 16.5929 18.2784 16.5929H11.9358V24.0683L18.1915 24.0901ZM36.785 24.0027C37.5452 24.7677 38.7399 25.1612 40.2604 25.1612C41.3464 25.1612 42.2805 24.877 43.0841 24.3962C43.8878 23.9153 44.344 23.2377 44.5395 22.6475H49.253C48.4928 24.9645 47.2981 26.6257 45.7776 27.6748C44.2571 28.724 42.4108 29.2049 40.1952 29.2049C38.7754 29.2073 37.3679 28.9404 36.0464 28.418C34.7866 27.9371 33.8309 27.2595 32.962 26.2759C32.0932 25.2923 31.4415 24.3087 31.0071 23.0847C30.5251 21.7477 30.2966 20.3316 30.3337 18.9098C30.3337 17.4453 30.551 16.0683 30.9854 14.8442C31.4492 13.6273 32.1342 12.5081 33.0055 11.5437C33.8867 10.6362 34.9341 9.90876 36.0899 9.40162C37.3759 8.89011 38.7472 8.63045 40.1301 8.63659C41.7592 8.63659 43.2145 8.92074 44.4743 9.59834C45.6812 10.1984 46.7137 11.1019 47.4719 12.2213C48.2321 13.3142 48.8186 14.5382 49.2096 15.9371C49.4231 17.3471 49.4887 18.7757 49.4051 20.1994H35.4382C35.4382 21.7295 36.0247 23.2158 36.785 23.9809V24.0027ZM42.8669 13.8169C42.2153 13.1612 41.1292 12.724 39.8694 12.724C39.1316 12.7087 38.4012 12.8737 37.7407 13.2049C37.1542 13.489 36.785 13.8606 36.394 14.2978C36.003 14.735 35.8075 15.1721 35.7423 15.653C35.6772 16.1339 35.5251 16.5273 35.5251 16.9207H44.2137C43.9964 15.4563 43.562 14.5164 42.8669 13.8169ZM56.9423 1.79506V11.8497H57.0292C57.6163 10.78 58.5303 9.92919 59.6358 9.42348C60.7219 8.9426 61.6559 8.65845 62.7202 8.65845C63.9066 8.61417 65.0894 8.81503 66.1956 9.24861C67.0645 9.64206 67.8247 10.2104 68.3243 10.888C68.8239 11.5656 69.1932 12.418 69.4104 13.4016C69.6276 14.3852 69.6928 15.4344 69.6928 16.6803V28.6147H64.3276V17.6858C64.3276 16.0464 64.0452 14.8442 63.5673 14.1011C63.0895 13.3579 62.2206 12.9426 60.9608 12.9426C59.5055 12.9426 58.4628 13.4235 57.8764 14.2104C57.2899 14.9972 56.9206 16.5273 56.9206 18.4727V28.6584H51.6206V1.7732L56.9423 1.79506ZM73.5157 12.0683C74.1022 11.194 74.7755 10.6038 75.6444 10.0355C76.5132 9.46719 77.469 9.16118 78.5333 8.9426C79.5977 8.72402 80.662 8.65845 81.7046 8.65845C82.7473 8.65845 83.6596 8.74588 84.7022 8.87703C85.7448 9.00817 86.6571 9.27047 87.3956 9.64206C88.1863 10.0233 88.8779 10.5846 89.4157 11.2814C89.8936 11.9371 90.1759 12.9207 90.1759 14.1229V24.3087C90.1759 25.183 90.2628 26.0574 90.3932 26.8224C90.5235 27.5874 90.7841 28.2869 91.0448 28.6584H85.6579C85.4407 28.4399 85.3755 28.0683 85.2669 27.7841C85.1583 27.5 85.1801 27.1284 85.1801 26.8224C84.342 27.6679 83.3138 28.2977 82.1825 28.6584C81.0313 29.0519 79.8801 29.1393 78.7071 29.1393C77.7514 29.1393 76.9694 29.0519 76.1005 28.7459C75.2317 28.4399 74.6452 28.1557 73.9719 27.653C73.2985 27.1503 72.8858 26.5601 72.5165 25.8169C72.1916 24.9815 72.0293 24.091 72.0387 23.194C72.0387 22.1011 72.2559 21.1612 72.6251 20.4836C73.0012 19.817 73.4943 19.2245 74.0805 18.735C74.7331 18.2995 75.4521 17.9746 76.2091 17.7732L78.5985 17.2923L80.901 17.0082L82.921 16.724C83.5075 16.5054 84.0071 16.3306 84.3764 16.0683C84.7456 15.806 84.8542 15.4125 84.8542 14.8005C84.8542 14.1885 84.7673 13.7076 84.5719 13.4453C84.3764 13.183 84.094 12.8552 83.8116 12.6803C83.5292 12.5054 83.16 12.3962 82.7255 12.2869C82.2911 12.1776 81.8567 12.1994 81.3788 12.1994C80.2928 12.1994 79.5542 12.418 78.9895 12.8552C78.4247 13.2923 78.0337 14.1229 77.9034 15.0847H72.6034C72.6034 13.9262 72.9944 12.8552 73.4723 12.0683H73.5157ZM84.0288 19.6311C83.6775 19.7384 83.3225 19.8332 82.9645 19.9153C82.5735 20.0027 82.2042 20.0027 81.7046 20.1339C81.205 20.265 80.8358 20.2213 80.4448 20.3524L79.2936 20.6366C78.9026 20.724 78.5333 20.9207 78.3378 21.1175C78.1423 21.3142 77.86 21.5983 77.6862 21.8825C77.5124 22.1666 77.4038 22.6475 77.4038 23.1503C77.4038 23.653 77.4907 24.0246 77.6862 24.3087C77.8817 24.5929 78.0772 24.8989 78.3378 25.0737C78.5985 25.2486 78.9895 25.3579 79.4239 25.4672C79.8583 25.5765 80.1842 25.5546 80.6837 25.5546C81.7698 25.5546 82.5083 25.336 83.0731 25.0737C83.6378 24.8115 84.0288 24.3087 84.3329 23.806C84.637 23.3033 84.8108 22.8442 84.8108 22.3415C84.8108 21.8388 84.8977 21.4672 84.8977 21.183V19.1503C84.6153 19.3688 84.3112 19.5437 84.0288 19.6311ZM98.1911 9.13932V11.8497H98.278C98.865 10.78 99.7791 9.92919 100.885 9.42348C101.971 8.9426 103.1 8.65845 104.143 8.65845C105.329 8.61417 106.512 8.81503 107.618 9.24861C108.574 9.64206 109.247 10.2104 109.747 10.888C110.246 11.5656 110.616 12.418 110.898 13.4016C111.18 14.3852 111.18 15.4344 111.18 16.6803V28.6147H105.88V17.6858C105.88 16.0464 105.598 14.8442 105.098 14.1011C104.599 13.3579 103.752 12.8333 102.405 12.8333C101.058 12.8333 99.9071 13.4235 99.2337 14.2978C98.5604 15.1721 98.278 16.6147 98.278 18.5601V28.7459H92.9997V9.16118L98.1911 9.13932ZM123.04 12.6366C122.171 12.6366 121.52 12.8552 120.912 13.2268C120.303 13.5983 119.826 14.1011 119.456 14.7568C119.087 15.4125 118.87 16.0246 118.674 16.7896C118.479 17.5546 118.457 18.2541 118.457 19.0191C118.474 19.7367 118.54 20.4524 118.653 21.1612C118.87 21.9481 119.044 22.5164 119.435 23.1284C119.826 23.7404 120.195 24.2213 120.781 24.5929C121.368 24.9645 122.041 25.183 122.91 25.183C124.008 25.2202 125.079 24.8375 125.908 24.112C126.559 23.4563 127.059 22.4727 127.167 21.2049H132.272C131.881 23.8278 130.925 25.7951 129.274 27.1065C127.623 28.418 125.517 29.1393 122.91 29.1393C121.455 29.1393 120.086 28.8552 118.957 28.3743C117.827 27.8934 116.741 27.2158 115.872 26.3415C115.005 25.4486 114.319 24.3944 113.852 23.2377C113.379 21.9665 113.151 20.6165 113.179 19.2595C113.142 17.8378 113.37 16.4216 113.852 15.0847C114.285 13.8456 114.94 12.6972 115.785 11.6967C116.654 10.735 117.74 10.0574 118.87 9.46719C120.193 8.95231 121.6 8.69278 123.019 8.70217C124.17 8.70217 125.234 8.92074 126.277 9.18304C127.319 9.44533 128.297 9.94807 129.101 10.5382C129.904 11.1284 130.621 11.8934 131.121 12.8552C131.62 13.8169 131.903 14.888 131.989 16.1339H126.776C126.559 13.8169 125.343 12.6366 123.019 12.6366H123.04ZM34.4173 3.60927H45.2128V6.23222H34.3522L34.4173 3.60927ZM140.33 23.9809C141.112 24.7459 142.351 25.1393 143.806 25.1393C144.892 25.1393 145.826 24.8552 146.63 24.3743C147.433 23.8934 147.889 23.2158 148.085 22.6257H152.712C151.93 24.9426 150.757 26.6038 149.236 27.653C147.716 28.7022 145.869 29.183 143.654 29.183C142.234 29.1855 140.827 28.9185 139.505 28.3962C138.317 27.9482 137.258 27.2125 136.421 26.2541C135.552 25.3798 134.9 24.2869 134.466 23.0628C133.984 21.7259 133.755 20.3097 133.792 18.888C133.792 17.4235 134.01 16.0464 134.444 14.8224C134.906 13.6048 135.592 12.4853 136.464 11.5218C137.345 10.6143 138.393 9.8869 139.548 9.37976C140.808 8.89888 142.155 8.61473 143.589 8.61473C145.218 8.61473 146.673 8.89889 147.824 9.57648C149.031 10.1766 150.064 11.08 150.822 12.1994C151.582 13.2923 152.169 14.5164 152.56 15.9153C152.937 17.3393 153.069 18.8179 152.951 20.2869H138.984C138.984 21.7513 139.57 23.194 140.33 24.0027V23.9809ZM146.499 13.7951C145.848 13.1393 144.762 12.7022 143.502 12.7022C142.633 12.7022 141.981 12.9207 141.373 13.183C140.765 13.4453 140.287 13.8388 140.026 14.2759C139.766 14.7131 139.44 15.1503 139.375 15.6311C139.31 16.112 139.158 16.5054 139.158 16.8989H147.846C147.564 15.4344 147.064 14.4945 146.499 13.7951Z" fill="#EF3B50"/>
</svg>
