<svg width="150" height="40" viewBox="0 0 150 40" fill="none" xmlns="http://www.w3.org/2000/svg">
<path d="M8.18896 0C6.88195 0 5.18754 1.37377 4.18797 2.28825C1.99041 4.22171 0 7.77695 0 10.6306C0 14.6854 3.4791 16.216 4.35907 16.216C4.6492 16.216 4.89655 16.0676 4.89655 15.6774C4.89655 15.3715 4.70084 15.117 4.50614 14.8555C3.70042 13.6346 3.44162 12.4694 3.44162 10.8979C3.44162 7.62125 4.96622 4.6179 6.23088 3.24356C6.46407 2.99484 6.99097 2.45756 7.14862 2.45756C7.30513 2.45756 7.3439 2.5839 7.3439 2.97442L7.19697 24.4206C7.19697 27.7732 6.22101 29.105 6.22101 29.8944C6.22101 30.2412 6.37251 30.3313 6.66178 30.3313C8.03145 30.3313 9.3964 28.6766 9.78309 28.0731C10.9822 26.0201 11.2764 24.4175 11.2764 19.7947V1.77351C11.2764 1.28571 11.1383 1.07485 10.6708 0.774093C9.98709 0.343726 9.20369 0 8.18896 0ZM47.3509 0.0598401C46.7067 0.0598401 46.4313 0.39364 46.4009 1.42652L46.2579 5.70325L42.4844 5.57364C42.2555 5.56783 42.1521 5.63958 42.0519 5.83895C41.7315 6.43451 41.5628 6.90118 41.5628 7.67825C41.5628 8.31097 41.8522 8.37847 42.1103 8.37847L46.0365 8.49021L46.0245 16.6609C46.0245 18.3939 44.9212 20.642 42.9635 22.5118C42.9635 22.5118 43.1319 21.9473 43.1223 21.355C43.1223 19.6785 42.0338 18.1592 40.5826 17.0841L37.0405 14.4429C37.783 13.5915 39.0409 11.9029 39.0409 10.4771C39.0409 9.37164 38.3397 8.90724 37.0324 8.90724C35.1873 8.90724 33.0475 10.5822 33.0475 13.0664C33.0475 13.972 33.454 14.787 34.0719 15.4104C33.2188 17.0147 32.0118 19.1256 31.1155 20.6288C30.4385 21.7798 29.2933 23.5433 28.6158 23.5433C28.1162 23.5433 27.8853 22.7642 27.8853 19.7711C27.8853 17.2843 28.0636 14.5806 28.153 11.9853C28.153 11.3905 28.0546 10.8417 27.2755 10.3037C26.5587 9.84852 25.6736 9.21283 24.7619 9.21283C22.735 9.21283 21.3542 11.0615 20.4069 12.8692C19.4267 14.7426 18.8967 16.3215 18.1489 18.6121L18.2314 10.7287C18.2569 10.1666 18.1137 9.94835 17.6599 9.75706C17.0712 9.50962 16.2047 9.22431 15.436 9.22431C14.7937 9.22431 14.7155 9.49884 14.7155 10.1679L14.6291 19.6273L14.6193 23.2757C14.6193 26.565 15.0349 27.1135 17.0041 27.1135C18.0944 27.1135 18.4436 26.9866 18.4652 26.0883C18.4951 25.4942 18.7818 24.0547 19.1696 22.6112C20.3039 18.3504 21.648 14.9803 23.9655 12.4117C24.2071 12.1624 24.3939 12.2516 24.3559 12.6051C24.3559 12.6051 23.9895 18.3715 23.9895 20.7301C23.9895 24.9248 24.6407 27.1137 26.7464 27.1137C28.8131 27.1137 30.8428 24.4817 31.9508 22.7049L35.5052 16.8122C37.8083 18.7575 39.4155 20.2657 39.4155 22.1004C39.4155 23.2408 38.6896 24.3565 37.5839 24.3565C36.202 24.3565 35.3192 22.9121 34.3859 22.9121C33.6112 22.9121 32.6169 24.3945 32.6169 25.2362C32.6169 26.0309 34.3664 27.1551 37.5055 27.1551C42.1394 27.1551 44.6252 24.003 46.117 20.5124C46.4026 24.6553 48.068 27.0752 50.6654 27.0752C52.3691 27.0752 54.3382 24.9417 55.2339 22.3355C55.2339 22.3355 55.3223 23.0121 56.0026 24.3982C56.9389 26.2083 58.3623 27.0394 60.1304 27.0394C62.3296 27.0394 64.2105 25.7179 65.3589 23.5006C65.533 25.1808 66.9563 27.0311 69.2451 27.0311C70.6819 27.0311 71.9918 25.94 72.8516 24.1427C72.8516 24.1427 73.9653 27.1111 77.1866 27.1111C78.9959 27.1111 81.1384 25.4498 81.6504 24.2426L81.7068 25.9981L76.9272 30.3669C75.5394 31.7022 74.0632 33.6208 74.0632 35.745C74.0632 38.4466 76.6365 40 78.9012 40C81.2553 40 82.8172 38.5217 83.6729 37.2831C84.7497 35.6803 85.2045 32.6595 85.2045 29.7066L85.0977 25.2664C88.3191 21.7567 90.8402 16.9055 91.9625 13.4731L94.4077 13.4093C94.8814 13.3777 94.8578 13.5626 94.7923 13.8363C94.3625 15.6363 93.9873 17.6748 93.9873 19.705C93.9873 23.059 94.7667 24.5186 95.887 25.7114C96.8611 26.7108 97.8298 27.0479 98.8493 27.0479C100.843 27.0479 102.095 25.4157 102.492 24.3868C103.428 26.1969 104.808 27.0399 106.576 27.0399C108.775 27.0399 110.656 25.7185 111.804 23.5011C111.978 25.1813 113.401 27.0317 115.69 27.0317C117.4 27.0317 118.392 26.0537 119.172 24.211C119.188 24.8037 119.211 25.4356 119.229 26.028C119.249 26.3346 119.496 26.5286 119.718 26.6086C120.445 26.8813 121.083 27.0177 121.656 27.0177C123.15 27.0177 123.475 26.7134 123.475 25.7449C123.475 24.1475 123.522 21.6236 123.98 19.5971C124.466 17.5795 125.2 15.2955 126.212 13.7064C126.303 13.5422 126.527 13.5853 126.536 13.7842C126.682 17.1845 126.911 22.9405 127.812 24.4305C128.257 25.1412 128.945 25.6592 129.974 25.6592C130.456 25.6592 131.048 25.4553 131.199 25.3281C131.353 25.2096 131.43 25.0778 131.421 24.8335C131.421 20.4867 132.788 16.2785 134.158 13.4491C134.195 13.3652 134.302 13.3587 134.298 13.4691L134.222 16.6011C134.222 21.7451 134.596 24.9949 137.188 26.5572C137.698 26.8399 138.273 26.9876 138.857 26.9859C140.183 26.9859 141.386 26.2517 141.98 25.0709C142.465 24.1533 142.918 22.3872 142.918 21.3867C142.918 20.9995 142.923 20.3692 142.282 20.3692C141.931 20.3692 141.72 20.6258 141.636 21.0135C141.432 21.8538 141.264 22.5745 140.948 23.4053C140.645 24.1984 140.193 24.6602 139.658 24.6602C139.028 24.6602 138.709 24.1695 138.526 23.8661C137.724 22.6523 137.659 19.8639 137.659 17.5366L137.853 11.5462C137.853 11.0506 137.644 10.4574 136.872 10.0201C136.354 9.72459 135.045 9.1683 134.242 9.1683C133.498 9.1683 133.138 9.58605 132.869 10.1993C132.366 11.3008 130.682 15.6214 130.231 19.1341C130.215 19.2267 130.098 19.2463 130.09 19.1281C129.856 16.6441 129.735 13.6511 129.738 11.6318C129.738 11.0214 129.587 10.1487 128.281 9.58321C127.646 9.32215 127.121 9.16234 126.479 9.16234C125.684 9.16234 125.513 9.54833 125.228 10.0598C124.326 11.7107 123.703 13.8635 122.768 16.579L122.783 10.3652C122.783 10.0747 122.603 9.69382 122.088 9.59129C120.812 9.3006 120.221 9.16858 119.718 9.16858C119.351 9.16858 119.15 9.458 119.15 9.77096L119.081 20.3655C118.834 21.6624 117.834 24.7581 116.415 24.7581C115.25 24.7581 114.706 23.5882 114.706 18.6981L114.918 10.7505C114.918 10.2485 114.585 10.0377 114.101 9.82512C113.408 9.5523 112.856 9.44396 112.152 9.44396C111.268 9.44396 110.965 9.86327 111.144 10.8705C110.172 9.56761 109.201 8.84755 107.485 8.84755C104.04 8.84755 101.444 12.9548 101.444 18.9235C101.41 20.5972 101.818 22.2607 101.818 22.2607C101.506 23.6498 100.774 24.782 99.7612 24.782C98.4841 24.782 97.6702 22.9924 97.6702 19.8907C97.6702 16.7799 98.8657 13.2713 98.8657 12.3204C98.8657 11.2148 98.1348 10.5153 96.8411 10.5153C96.193 10.5153 93.7888 11.0558 92.5564 11.2332C92.5564 11.2332 92.6954 10.6514 92.6851 10.1939C92.6851 9.10378 92.1691 8.42058 90.888 8.42058C89.3225 8.42058 88.173 9.52862 88.173 11.419C88.173 12.2671 88.6658 13.0518 89.3182 13.4734C88.4714 16.9742 87.0946 19.5776 85.0657 22.4861L85.2367 10.7087C85.2367 10.3258 85.1338 10.088 84.3771 9.79691C83.9771 9.62561 83.3252 9.4278 82.5035 9.4278C81.3125 9.4278 81.3913 10.2708 81.455 10.902C80.9101 9.94424 79.7171 8.80742 77.8766 8.80742C72.8612 8.80742 71.3214 16.3881 72.0765 21.7717C72.0765 22.4281 71.4298 24.7581 69.9693 24.7581C68.8044 24.7581 68.2607 23.5882 68.2607 18.6981L68.4742 10.7505C68.4742 10.2484 68.1394 10.0375 67.6549 9.82512C66.962 9.5523 66.4128 9.44396 65.7087 9.44396C64.8247 9.44396 64.5214 9.86327 64.7002 10.8703C63.7287 9.56747 62.7555 8.8474 61.0394 8.8474C57.5945 8.8474 54.9635 12.6037 54.9635 18.5721C54.9635 20.8505 52.9844 24.3271 51.5966 24.3271C50.8256 24.3271 50.0047 22.9243 50.0047 19.3401C50.0086 16.897 50.3448 8.58011 50.3448 8.58011L55.189 8.50226C55.4201 8.50013 55.5541 8.24971 55.6397 8.09543C55.8622 7.64805 55.9698 7.35013 55.9698 6.81483C55.9698 6.33185 55.8722 6.15545 55.2473 6.12057L50.4192 5.83328L50.6246 1.37505C50.639 1.09357 50.4677 0.91008 50.1576 0.772675C49.223 0.410373 48.0768 0.0599819 47.3509 0.0598401ZM62.0121 11.7414C63.3037 11.7414 64.6143 12.909 64.6143 17.0515C64.6143 22.2672 62.6972 24.6938 61.2231 24.6938C59.8412 24.6938 58.7921 22.7604 58.7921 18.9627C58.7921 15.124 59.8166 11.7414 62.0121 11.7414ZM108.526 11.7414C109.817 11.7414 111.128 12.909 111.128 17.0515C111.128 22.2672 109.211 24.6938 107.737 24.6938C106.355 24.6938 105.306 22.7604 105.306 18.9627C105.306 15.124 106.33 11.7414 108.526 11.7414ZM79.0241 11.7654C80.7096 11.7654 81.4553 13.4874 81.4553 16.826C81.4553 21.8595 79.9457 24.7255 78.1124 24.7255C76.942 24.7255 75.5962 22.8206 75.6672 19.0741C75.6672 16.6787 76.4551 11.7654 79.0241 11.7654ZM81.8777 28.6037V30.5864C81.8777 37.1654 80.1091 38.2883 78.6879 38.2883C78.1494 38.2883 76.8304 37.8852 76.8304 36.2576C76.8304 33.9824 79.2302 31.3941 79.976 30.5943L81.8777 28.6037Z" fill="#EF3B50"/>
</svg>
