<svg width="128" height="50" viewBox="0 0 128 34" fill="none" xmlns="http://www.w3.org/2000/svg">
<path d="M0.850098 5.72997H5.7901V23.71H14.9301V28.27H0.850098V5.72997ZM17.1101 13H21.8501V28.26H17.1101V13ZM19.4801 5.40997C20.024 5.40997 20.5557 5.57126 21.0079 5.87343C21.4601 6.17561 21.8126 6.6051 22.0208 7.10759C22.2289 7.61009 22.2834 8.16302 22.1773 8.69647C22.0711 9.22992 21.8092 9.71992 21.4246 10.1045C21.04 10.4891 20.55 10.751 20.0166 10.8571C19.4831 10.9632 18.9302 10.9088 18.4277 10.7006C17.9252 10.4925 17.4957 10.14 17.1936 9.68779C16.8914 9.23555 16.7301 8.70387 16.7301 8.15997C16.7301 7.43063 17.0198 6.73116 17.5356 6.21543C18.0513 5.69971 18.7508 5.40997 19.4801 5.40997ZM41.6901 5.72997H46.4301V19.2L51.8101 12.98H57.6201L51.4001 20.05L57.4901 28.27H51.5301L46.4901 20.72H46.4301V28.27H41.6901V5.72997ZM24.4801 13H29.0001V15.09H29.0601C29.516 14.3115 30.1741 13.6709 30.9646 13.236C31.7551 12.8012 32.6485 12.5883 33.5501 12.62C38.3601 12.62 39.2401 15.78 39.2401 19.89V28.27H34.5401V20.84C34.5401 19.07 34.5401 16.84 32.0701 16.84C29.6001 16.84 29.2201 18.77 29.2201 20.76V28.31H24.4801V13Z" fill="#EF3B50"/>
<path d="M67.6098 18.85C67.6195 18.4652 67.5507 18.0825 67.4079 17.7251C67.2651 17.3677 67.0511 17.0431 66.7789 16.7709C66.5068 16.4988 66.1821 16.2848 65.8247 16.1419C65.4673 15.9991 65.0846 15.9304 64.6998 15.94C63.8711 15.8876 63.055 16.1635 62.4281 16.7081C61.8012 17.2526 61.4139 18.0221 61.3498 18.85H67.6098ZM71.6098 25.62C70.8187 26.568 69.8272 27.3289 68.7067 27.8476C67.5862 28.3664 66.3646 28.6302 65.1298 28.62C60.3898 28.62 56.5898 25.46 56.5898 20.55C56.5898 15.64 60.3898 12.49 65.1298 12.49C69.5598 12.49 72.3398 15.65 72.3398 20.55V22.04H61.3398C61.4705 22.8877 61.9045 23.6591 62.5611 24.2108C63.2177 24.7626 64.0523 25.0573 64.9098 25.04C65.5853 25.039 66.2495 24.867 66.8405 24.54C67.4316 24.213 67.9302 23.7417 68.2898 23.17L71.6098 25.62ZM82.2298 16.68C81.4558 16.6561 80.6923 16.8638 80.037 17.2764C79.3817 17.6891 78.8645 18.2879 78.5515 18.9963C78.2386 19.7047 78.1443 20.4903 78.2805 21.2526C78.4168 22.015 78.7775 22.7193 79.3164 23.2753C79.8554 23.8314 80.548 24.214 81.3057 24.3741C82.0634 24.5342 82.8516 24.4645 83.5694 24.1739C84.2873 23.8833 84.902 23.3851 85.335 22.7431C85.768 22.1011 85.9995 21.3444 85.9998 20.57C86.0423 20.0561 85.9738 19.5391 85.7991 19.054C85.6244 18.5689 85.3476 18.1269 84.9873 17.7581C84.6269 17.3893 84.1916 17.1021 83.7107 16.9161C83.2298 16.7301 82.7146 16.6496 82.1998 16.68H82.2298ZM90.3998 28.26H85.9998V26.26C85.4502 26.9931 84.7398 27.5906 83.9234 28.0066C83.107 28.4227 82.2061 28.6462 81.2898 28.66C76.7298 28.66 73.7298 25.37 73.7298 20.72C73.7298 16.45 76.3898 12.53 80.7298 12.53C81.6424 12.4498 82.5608 12.5896 83.4081 12.9376C84.2555 13.2855 85.0071 13.8316 85.5998 14.53H85.6598V5.72998H90.3998V28.26Z" fill="#EF3B50"/>
<path d="M124.6 0.999976H97.36C97.0507 0.99599 96.7437 1.05365 96.4568 1.16958C96.17 1.28552 95.9092 1.45741 95.6895 1.67523C95.4698 1.89305 95.2957 2.15244 95.1773 2.43826C95.0589 2.72408 94.9987 3.03061 95 3.33998V30.69C95.0026 30.9968 95.0658 31.3001 95.186 31.5825C95.3061 31.8648 95.4808 32.1206 95.7001 32.3353C95.9194 32.5499 96.1789 32.7191 96.4638 32.8332C96.7486 32.9473 97.0532 33.0039 97.36 33H124.6C124.91 33.0079 125.218 32.9543 125.507 32.8422C125.796 32.73 126.06 32.5616 126.283 32.3467C126.506 32.1318 126.685 31.8747 126.808 31.5903C126.931 31.3059 126.996 30.9999 127 30.69V3.33998C127 3.02757 126.938 2.7183 126.816 2.43042C126.695 2.14253 126.517 1.88186 126.294 1.66377C126.07 1.44568 125.805 1.27458 125.514 1.16058C125.223 1.04657 124.912 0.991965 124.6 0.999976ZM104.48 28.27H99.74V13H104.48V28.27ZM102.11 10.93C101.566 10.93 101.034 10.7687 100.582 10.4665C100.13 10.1643 99.7775 9.73485 99.5694 9.23236C99.3612 8.72986 99.3068 8.17693 99.4129 7.64348C99.519 7.11003 99.7809 6.62003 100.165 6.23543C100.55 5.85084 101.04 5.58893 101.574 5.48282C102.107 5.37671 102.66 5.43117 103.162 5.63931C103.665 5.84745 104.094 6.19992 104.397 6.65216C104.699 7.10439 104.86 7.63608 104.86 8.17998C104.86 8.90932 104.57 9.60879 104.055 10.1245C103.539 10.6402 102.839 10.93 102.11 10.93ZM122.24 28.27H117.5V20.85C117.5 19.08 117.5 16.85 115.04 16.85C112.58 16.85 112.19 18.78 112.19 20.77V28.32H107.45V13H112V15.1H112.06C112.517 14.3233 113.176 13.6847 113.966 13.2517C114.757 12.8187 115.649 12.6073 116.55 12.64C121.35 12.64 122.24 15.8 122.24 19.91V28.27Z" fill="#EF3B50"/>
</svg>
