<svg width="1440" height="935" viewBox="0 0 1440 935" fill="none" xmlns="http://www.w3.org/2000/svg">
<path d="M-24 10.3334C30.3725 1.8366 136.772 0.137227 127.39 61.3145C115.663 137.786 -82.6371 386.194 22.3766 433.676C127.39 481.158 303.301 68.3119 337.951 236.249C372.6 404.187 131.655 652.594 337.951 543.135C544.246 433.676 801.183 -73.6353 933.383 10.3334C1065.58 94.3022 750.542 265.738 933.383 291.229C1116.22 316.719 1182.86 -69.6368 1252.69 83.3063C1322.52 236.249 727.62 616.608 1007.48 638.1C1287.34 659.592 1197.78 980.972 1349.71 849.521C1471.24 744.36 1473.2 550.132 1458.98 466.164" stroke="#EF3B50" stroke-opacity="0.4"/>
<path d="M-49 63.3334C5.37254 54.8366 111.772 53.1372 102.39 114.314C90.6628 190.786 -107.637 439.194 -2.62342 486.676C102.39 534.158 278.301 121.312 312.951 289.249C347.6 457.187 106.655 705.594 312.951 596.135C519.246 486.676 776.183 -20.6353 908.383 63.3334C1040.58 147.302 725.542 318.738 908.383 344.229C1091.22 369.719 1157.86 -16.6368 1227.69 136.306C1297.52 289.249 702.62 669.608 982.479 691.1C1262.34 712.592 1172.78 1033.97 1324.71 902.521C1446.24 797.36 1457.72 601.469 1443.5 517.5" stroke="#EF3B50"/>
</svg>
