<svg width="45" height="45" viewBox="0 0 45 45" fill="none" xmlns="http://www.w3.org/2000/svg">
<rect x="0.5" y="0.5" width="44" height="44" rx="22" fill="#E9B5B5"/>
<g clip-path="url(#clip0_7_126)">
<path d="M32.5 17.5H25.5V15.5H32.5V17.5ZM34.226 27.5C33.784 28.797 32.197 30.5 29.125 30.5C26.051 30.5 23.561 28.771 23.561 24.825C23.561 20.915 25.886 18.905 29.027 18.905C32.109 18.905 33.991 20.687 34.402 23.331C34.48 23.837 34.511 24.519 34.497 25.471H26.47C26.6 28.682 29.953 28.783 31.058 27.5H34.226ZM26.54 23.5H31.505C31.4 21.953 30.369 21.281 29.028 21.281C27.562 21.281 26.751 22.049 26.54 23.5ZM16.966 30.488H10.5V15.521H17.453C22.929 15.602 23.033 20.965 20.173 22.427C23.634 23.687 23.75 30.488 16.966 30.488ZM13.5 21.5H17.084C19.592 21.5 19.99 18.5 16.772 18.5H13.5V21.5ZM16.891 24.5H13.5V27.516H16.841C19.896 27.516 19.709 24.5 16.891 24.5Z" fill="white"/>
</g>
<defs>
<clipPath id="clip0_7_126">
<rect width="24" height="24" fill="white" transform="translate(10.5 10.5)"/>
</clipPath>
</defs>
</svg>
