<svg width="45" height="45" viewBox="0 0 45 45" fill="none" xmlns="http://www.w3.org/2000/svg">
<rect x="0.5" y="0.5" width="44" height="44" rx="22" fill="#E9B5B5"/>
<path fill-rule="evenodd" clip-rule="evenodd" d="M17.5527 10.572C18.8324 10.5131 19.2404 10.5 22.5 10.5C25.7596 10.5 26.1676 10.5142 27.4462 10.572C28.7247 10.6298 29.5975 10.8338 30.3611 11.1295C31.1607 11.4316 31.8862 11.904 32.4862 12.5149C33.0971 13.1138 33.5684 13.8382 33.8695 14.6389C34.1662 15.4025 34.3691 16.2753 34.428 17.5516C34.4869 18.8335 34.5 19.2415 34.5 22.5C34.5 25.7596 34.4858 26.1676 34.428 27.4473C34.3702 28.7236 34.1662 29.5964 33.8695 30.36C33.5684 31.1608 33.0963 31.8864 32.4862 32.4862C31.8862 33.0971 31.1607 33.5684 30.3611 33.8695C29.5975 34.1662 28.7247 34.3691 27.4484 34.428C26.1676 34.4869 25.7596 34.5 22.5 34.5C19.2404 34.5 18.8324 34.4858 17.5527 34.428C16.2764 34.3702 15.4036 34.1662 14.64 33.8695C13.8392 33.5683 13.1136 33.0963 12.5138 32.4862C11.9033 31.8869 11.4309 31.1617 11.1295 30.3611C10.8338 29.5975 10.6309 28.7247 10.572 27.4484C10.5131 26.1665 10.5 25.7585 10.5 22.5C10.5 19.2404 10.5142 18.8324 10.572 17.5538C10.6298 16.2753 10.8338 15.4025 11.1295 14.6389C11.4313 13.8383 11.9041 13.1131 12.5149 12.5138C13.1139 11.9035 13.8387 11.431 14.6389 11.1295C15.4025 10.8338 16.2764 10.6309 17.5527 10.572ZM27.3491 12.732C26.0836 12.6742 25.704 12.6622 22.5 12.6622C19.296 12.6622 18.9164 12.6742 17.6509 12.732C16.4804 12.7855 15.8455 12.9807 15.4222 13.1455C14.8625 13.3636 14.4622 13.6222 14.0422 14.0422C13.644 14.4295 13.3377 14.901 13.1455 15.4222C12.9807 15.8455 12.7855 16.4804 12.732 17.6509C12.6742 18.9164 12.6622 19.296 12.6622 22.5C12.6622 25.704 12.6742 26.0836 12.732 27.3491C12.7855 28.5196 12.9807 29.1545 13.1455 29.5778C13.3375 30.0982 13.644 30.5705 14.0422 30.9578C14.4295 31.356 14.9018 31.6625 15.4222 31.8545C15.8455 32.0193 16.4804 32.2145 17.6509 32.268C18.9164 32.3258 19.2949 32.3378 22.5 32.3378C25.7051 32.3378 26.0836 32.3258 27.3491 32.268C28.5196 32.2145 29.1545 32.0193 29.5778 31.8545C30.1375 31.6364 30.5378 31.3778 30.9578 30.9578C31.356 30.5705 31.6625 30.0982 31.8545 29.5778C32.0193 29.1545 32.2145 28.5196 32.268 27.3491C32.3258 26.0836 32.3378 25.704 32.3378 22.5C32.3378 19.296 32.3258 18.9164 32.268 17.6509C32.2145 16.4804 32.0193 15.8455 31.8545 15.4222C31.6364 14.8625 31.3778 14.4622 30.9578 14.0422C30.5705 13.6441 30.0989 13.3377 29.5778 13.1455C29.1545 12.9807 28.5196 12.7855 27.3491 12.732ZM20.9673 26.1993C21.8233 26.5556 22.7764 26.6037 23.6639 26.3353C24.5514 26.067 25.3182 25.4988 25.8334 24.7279C26.3485 23.957 26.5801 23.0311 26.4884 22.1085C26.3968 21.1858 25.9876 20.3236 25.3309 19.6691C24.9123 19.2507 24.406 18.9303 23.8487 18.7311C23.2914 18.5318 22.6968 18.4586 22.1078 18.5167C21.5188 18.5748 20.95 18.7627 20.4423 19.0671C19.9347 19.3714 19.5008 19.7844 19.172 20.2766C18.8431 20.7687 18.6275 21.3276 18.5406 21.913C18.4536 22.4985 18.4976 23.096 18.6693 23.6624C18.841 24.2288 19.1362 24.7501 19.5335 25.1888C19.9309 25.6275 20.4205 25.9726 20.9673 26.1993ZM18.1385 18.1385C18.7113 17.5658 19.3913 17.1115 20.1396 16.8015C20.8879 16.4915 21.69 16.332 22.5 16.332C23.31 16.332 24.1121 16.4915 24.8604 16.8015C25.6087 17.1115 26.2887 17.5658 26.8615 18.1385C27.4342 18.7113 27.8885 19.3913 28.1985 20.1396C28.5085 20.8879 28.668 21.69 28.668 22.5C28.668 23.31 28.5085 24.1121 28.1985 24.8604C27.8885 25.6087 27.4342 26.2887 26.8615 26.8615C25.7047 28.0182 24.1359 28.668 22.5 28.668C20.8641 28.668 19.2953 28.0182 18.1385 26.8615C16.9818 25.7047 16.332 24.1359 16.332 22.5C16.332 20.8641 16.9818 19.2953 18.1385 18.1385ZM30.036 17.2505C30.1779 17.1167 30.2916 16.9557 30.3702 16.7771C30.4487 16.5985 30.4907 16.4059 30.4935 16.2108C30.4964 16.0157 30.4601 15.8221 30.3867 15.6412C30.3134 15.4604 30.2045 15.2962 30.0665 15.1582C29.9285 15.0203 29.7643 14.9114 29.5835 14.838C29.4027 14.7647 29.209 14.7283 29.0139 14.7312C28.8188 14.734 28.6263 14.776 28.4477 14.8546C28.2691 14.9332 28.1081 15.0468 27.9742 15.1887C27.7138 15.4648 27.5712 15.8314 27.5768 16.2108C27.5823 16.5903 27.7355 16.9526 28.0038 17.2209C28.2721 17.4892 28.6345 17.6424 29.0139 17.648C29.3933 17.6535 29.76 17.5109 30.036 17.2505Z" fill="white"/>
</svg>
