<svg width="45" height="45" viewBox="0 0 45 45" fill="none" xmlns="http://www.w3.org/2000/svg">
<rect x="0.5" y="0.5" width="44" height="44" rx="22" fill="#E9B5B5"/>
<path fill-rule="evenodd" clip-rule="evenodd" d="M19.5433 19.0143H23.8144V21.1419C24.4297 19.9183 26.0075 18.8189 28.3776 18.8189C32.9213 18.8189 34 21.2545 34 25.7235V34H29.4V26.7412C29.4 24.1962 28.7847 22.7611 27.2185 22.7611C25.0461 22.7611 24.1433 24.3078 24.1433 26.7401V34H19.5433V19.0143ZM11.6555 33.8045H16.2555V18.8189H11.6555V33.8045ZM16.9145 13.9325C16.9146 14.3181 16.8382 14.6998 16.6895 15.0556C16.5408 15.4113 16.3229 15.734 16.0485 16.0048C15.4924 16.5575 14.7396 16.8669 13.9555 16.865C13.1728 16.8645 12.4218 16.5559 11.8648 16.006C11.5913 15.7342 11.3742 15.4112 11.2258 15.0554C11.0774 14.6996 11.0007 14.318 11 13.9325C11 13.154 11.3105 12.4088 11.8659 11.8591C12.4224 11.3084 13.1738 10.9997 13.9567 11C14.741 11 15.493 11.3094 16.0485 11.8591C16.6028 12.4088 16.9145 13.154 16.9145 13.9325Z" fill="white"/>
</svg>
